<svg width="1132" height="1609" viewBox="0 0 1132 1609" fill="none" xmlns="http://www.w3.org/2000/svg">
<mask id="mask0" style="mask-type:alpha" maskUnits="userSpaceOnUse" x="11" y="0" width="1110" height="1609">
<path d="M11 0H1121V1609H11V0Z" fill="white"/>
</mask>
<g mask="url(#mask0)">
<g style="mix-blend-mode:multiply" opacity="0.4">
<path style="mix-blend-mode:multiply" opacity="0.4" d="M1096.38 411.23L1068.79 427.954L1086.66 455.065L1096.38 411.23Z" fill="url(#paint0_linear)"/>
<path style="mix-blend-mode:multiply" opacity="0.4" d="M767.415 292.59L792.141 300.706L738.302 349.775L767.415 292.59Z" fill="url(#paint1_linear)"/>
<path style="mix-blend-mode:multiply" opacity="0.4" d="M1121.15 299.461L1087.47 332.948L1109.99 349.802L1121.15 299.461Z" fill="url(#paint2_linear)"/>
<path style="mix-blend-mode:multiply" opacity="0.4" d="M1109.99 349.802L1087.47 332.948L992.072 370.397L1104.04 376.657L1109.99 349.802Z" fill="url(#paint3_linear)"/>
<path style="mix-blend-mode:multiply" opacity="0.4" d="M1104.04 376.657L992.072 370.397L1068.79 427.954L1096.38 411.23L1104.04 376.657Z" fill="url(#paint4_linear)"/>
<path style="mix-blend-mode:multiply" opacity="0.4" d="M792.141 300.706L830.444 338.537L816.2 352.533L792.141 300.706Z" fill="url(#paint5_linear)"/>
<path style="mix-blend-mode:multiply" opacity="0.4" d="M792.141 300.706L738.302 349.776L816.2 352.533L792.141 300.706Z" fill="url(#paint6_linear)"/>
<path style="mix-blend-mode:multiply" opacity="0.4" d="M745.887 191.951L767.415 292.59L634.785 242.426L745.887 191.951Z" fill="url(#paint7_linear)"/>
<path style="mix-blend-mode:multiply" opacity="0.4" d="M521.011 197.342L526.115 349.855L634.785 242.426L521.011 197.342Z" fill="url(#paint8_linear)"/>
<path style="mix-blend-mode:multiply" opacity="0.4" d="M767.415 292.59L738.302 349.775L634.785 242.426L767.415 292.59Z" fill="url(#paint9_linear)"/>
<path style="mix-blend-mode:multiply" opacity="0.4" d="M526.115 349.855L738.302 349.775L634.785 242.426L526.115 349.855Z" fill="url(#paint10_linear)"/>
<path style="mix-blend-mode:multiply" opacity="0.4" d="M745.887 191.951L767.415 292.59L873.186 272.508L745.887 191.951Z" fill="url(#paint11_linear)"/>
<path style="mix-blend-mode:multiply" opacity="0.4" d="M721.586 441.489L702.427 392.805L665.76 407.741L721.586 441.489Z" fill="url(#paint12_linear)"/>
<path style="mix-blend-mode:multiply" opacity="0.4" d="M767.415 292.59L792.141 300.706L873.186 272.508L767.415 292.59Z" fill="url(#paint13_linear)"/>
<path style="mix-blend-mode:multiply" opacity="0.4" d="M792.141 300.706L830.444 338.537L873.186 272.508L792.141 300.706Z" fill="url(#paint14_linear)"/>
<path style="mix-blend-mode:multiply" opacity="0.4" d="M992.072 370.397L830.444 338.537L873.186 272.508L992.072 370.397Z" fill="url(#paint15_linear)"/>
<path style="mix-blend-mode:multiply" opacity="0.4" d="M1087.47 332.948L992.072 370.397L930.214 271.288L1087.47 332.948Z" fill="url(#paint16_linear)"/>
<path style="mix-blend-mode:multiply" opacity="0.4" d="M873.186 272.508L992.072 370.397L930.214 271.288L873.186 272.508Z" fill="url(#paint17_linear)"/>
<path style="mix-blend-mode:multiply" opacity="0.4" d="M419.771 144.907L396.911 248.071L432.154 268.754L419.771 144.907Z" fill="url(#paint18_linear)"/>
<path style="mix-blend-mode:multiply" opacity="0.4" d="M459.893 113.323L331.409 148.926L432.154 268.754L521.011 197.342L459.893 113.323Z" fill="url(#paint19_linear)"/>
<path style="mix-blend-mode:multiply" opacity="0.4" d="M447.553 129.083L464.443 158.994L556.437 242.827L574.796 130.323L447.553 129.083Z" fill="url(#paint20_linear)"/>
<path style="mix-blend-mode:multiply" opacity="0.4" d="M543.203 129.32L560.095 159.24L652.078 243.074L670.446 130.559L543.203 129.32Z" fill="url(#paint21_linear)"/>
<path style="mix-blend-mode:multiply" opacity="0.4" d="M396.91 248.071L393.953 261.436L432.154 268.754L396.91 248.071Z" fill="url(#paint22_linear)"/>
<path style="mix-blend-mode:multiply" opacity="0.4" d="M521.012 197.342L526.115 349.855L432.154 268.754L521.012 197.342Z" fill="url(#paint23_linear)"/>
</g>
<g style="mix-blend-mode:multiply" opacity="0.4">
<path style="mix-blend-mode:multiply" opacity="0.4" d="M1130.97 460.08L1062.03 480.05L1112.74 508.15L1130.97 460.08Z" fill="url(#paint24_linear)"/>
<path style="mix-blend-mode:multiply" opacity="0.4" d="M969.33 431.9L952.43 583.56L1075.42 492.89L969.33 431.9Z" fill="url(#paint25_linear)"/>
<path style="mix-blend-mode:multiply" opacity="0.4" d="M1112.74 508.15L1062.03 480.05L1102.19 535.97L1112.74 508.15Z" fill="url(#paint26_linear)"/>
<path style="mix-blend-mode:multiply" opacity="0.4" d="M1249.33 526.13L1074.31 488.98L929.36 585L1059.68 643.96L1249.33 526.13Z" fill="url(#paint27_linear)"/>
<path style="mix-blend-mode:multiply" opacity="0.4" d="M865.29 308L678 333.03L857.72 476.94L865.29 308Z" fill="url(#paint28_linear)"/>
<path style="mix-blend-mode:multiply" opacity="0.4" d="M865.29 308L955.93 419.06L857.72 476.94L865.29 308Z" fill="url(#paint29_linear)"/>
<path style="mix-blend-mode:multiply" opacity="0.4" d="M678 333.03L678.06 414.65L857.72 476.94L678 333.03Z" fill="url(#paint30_linear)"/>
<path style="mix-blend-mode:multiply" opacity="0.4" d="M955.93 419.06L939.03 570.72L857.72 476.94L955.93 419.06Z" fill="url(#paint31_linear)"/>
</g>
<g style="mix-blend-mode:multiply" opacity="0.13">
<path style="mix-blend-mode:multiply" opacity="0.4" d="M1179.18 284.19L1199.49 550.67L1114.35 517.04L1179.18 284.19Z" fill="url(#paint32_linear)"/>
<path style="mix-blend-mode:multiply" opacity="0.4" d="M1199.49 550.67L1105.36 728.96L1114.35 517.04L1199.49 550.67Z" fill="url(#paint33_linear)"/>
<path style="mix-blend-mode:multiply" opacity="0.4" d="M948 356.68L1081.17 499.92L1090.16 288L948 356.68Z" fill="url(#paint34_linear)"/>
<path style="mix-blend-mode:multiply" opacity="0.4" d="M514.88 253.73L553.11 275.43L454.11 351.84L514.88 253.73Z" fill="url(#paint35_linear)"/>
<path style="mix-blend-mode:multiply" opacity="0.4" d="M1179.18 284.19L1114.35 517.04L1024.95 414.73L1179.18 284.19Z" fill="url(#paint36_linear)"/>
<path style="mix-blend-mode:multiply" opacity="0.4" d="M1024.95 414.73L1114.35 517.04L861.22 458.41L1024.95 414.73Z" fill="url(#paint37_linear)"/>
<path style="mix-blend-mode:multiply" opacity="0.4" d="M1114.35 517.04L972.19 585.72L861.22 458.41L1114.35 517.04Z" fill="url(#paint38_linear)"/>
<path style="mix-blend-mode:multiply" opacity="0.4" d="M553.11 275.43L606.35 355.84L579.93 377.92L553.11 275.43Z" fill="url(#paint39_linear)"/>
<path style="mix-blend-mode:multiply" opacity="0.4" d="M553.11 275.43L454.11 351.84L579.93 377.92L553.11 275.43Z" fill="url(#paint40_linear)"/>
<path style="mix-blend-mode:multiply" opacity="0.4" d="M673.79 300.51L574.8 376.91L700.61 403L673.79 300.51Z" fill="url(#paint41_linear)"/>
<path style="mix-blend-mode:multiply" opacity="0.4" d="M869.67 361L826 487.95L942.64 428.13L869.67 361Z" fill="url(#paint42_linear)"/>
<path style="mix-blend-mode:multiply" opacity="0.4" d="M504.71 79.1001L428.29 247.87L224.79 119.19L504.71 79.1001Z" fill="url(#paint43_linear)"/>
<path style="mix-blend-mode:multiply" opacity="0.4" d="M145.07 35.8999L240.44 182.95L503.69 61.4799L429.75 45.7999L145.07 35.8999Z" fill="url(#paint44_linear)"/>
<path style="mix-blend-mode:multiply" opacity="0.91" d="M295.43 87L225 262.66L488.25 141.19L384.18 110.45L295.43 87Z" fill="url(#paint45_linear)"/>
<path style="mix-blend-mode:multiply" opacity="0.4" d="M650.49 304.68L589.71 402.79L447 176L650.49 304.68Z" fill="url(#paint46_linear)"/>
<path style="mix-blend-mode:multiply" opacity="0.4" d="M477.49 310.68L416.71 408.79L274 182L477.49 310.68Z" fill="url(#paint47_linear)"/>
<path style="mix-blend-mode:multiply" opacity="0.4" d="M183.87 346.79L362.28 358.4L219.56 131.62L87.3101 222.32L183.87 346.79Z" fill="url(#paint48_linear)"/>
<path style="mix-blend-mode:multiply" opacity="0.4" d="M331.1 355.5L509.5 367.12L366.79 140.34L234.54 231.04L331.1 355.5Z" fill="url(#paint49_linear)"/>
<path style="mix-blend-mode:multiply" opacity="0.4" d="M63.56 229.16L241.96 240.78L99.25 14L-33 104.7L63.56 229.16Z" fill="url(#paint50_linear)"/>
<path style="mix-blend-mode:multiply" d="M23 23.58L49.5 68.5L172.49 265.61L237.6 76.1L83.15 9L23 23.58Z" fill="url(#paint51_linear)"/>
<path style="mix-blend-mode:multiply" opacity="0.65" d="M510.94 75L413 124.06L522.13 267.25L698.59 258.53L510.94 75Z" fill="url(#paint52_linear)"/>
<path style="mix-blend-mode:multiply" opacity="0.65" d="M23.94 1L-74 50.06L35.13 193.25L211.59 184.53L23.94 1Z" fill="url(#paint53_linear)"/>
<path style="mix-blend-mode:multiply" opacity="0.4" d="M514.88 253.73L553.11 275.43L691.34 245.01L514.88 253.73Z" fill="url(#paint54_linear)"/>
<path style="mix-blend-mode:multiply" opacity="0.4" d="M553.11 275.43L606.35 355.84L691.34 245.01L553.11 275.43Z" fill="url(#paint55_linear)"/>
<path d="M800.441 534.86L864.968 471.776L725 415.104L800.441 534.86Z" fill="url(#paint56_linear)" style="mix-blend-mode:multiply"/>
<path style="mix-blend-mode:multiply" opacity="0.4" d="M861.22 458.41L606.35 355.84L691.34 245.01L861.22 458.41Z" fill="url(#paint57_linear)"/>
<path style="mix-blend-mode:multiply" opacity="0.4" d="M505 323L711.11 522.49L752.14 382.86L505 323Z" fill="url(#paint58_linear)"/>
<path style="mix-blend-mode:multiply" opacity="0.4" d="M1286.53 473.6L1122.81 517.28L1045.8 317L1286.53 473.6Z" fill="url(#paint59_linear)"/>
<path style="mix-blend-mode:multiply" opacity="0.4" d="M651.71 248.92L821.6 462.32L744.58 262.04L651.71 248.92Z" fill="url(#paint60_linear)"/>
</g>
<path style="mix-blend-mode:multiply" opacity="0.18" d="M791.74 360.65L691.95 383.98L608 272L791.74 360.65Z" fill="url(#paint61_linear)"/>
<path style="mix-blend-mode:multiply" opacity="0.4" d="M1141.86 436.48L1050.13 307L956 485.29L1131.61 467.33L1141.86 436.48Z" fill="url(#paint62_linear)"/>
</g>
<defs>
<linearGradient id="paint0_linear" x1="1146.24" y1="348.981" x2="1044.63" y2="388.627" gradientUnits="userSpaceOnUse">
<stop stop-color="#F7FFFF"/>
<stop offset="1" stop-color="#ECFFFF"/>
</linearGradient>
<linearGradient id="paint1_linear" x1="800.453" y1="270.811" x2="738.717" y2="282" gradientUnits="userSpaceOnUse">
<stop stop-color="#BAEFFF"/>
<stop offset="1" stop-color="#C9F5FF"/>
</linearGradient>
<linearGradient id="paint2_linear" x1="1156.57" y1="233.511" x2="1015.4" y2="267.886" gradientUnits="userSpaceOnUse">
<stop stop-color="#C0F1FF"/>
<stop offset="1" stop-color="#D4F9FF"/>
</linearGradient>
<linearGradient id="paint3_linear" x1="1148.9" y1="302.88" x2="1020.98" y2="382.046" gradientUnits="userSpaceOnUse">
<stop stop-color="#CDF6FF"/>
<stop offset="1" stop-color="#EAFFFF"/>
</linearGradient>
<linearGradient id="paint4_linear" x1="1141.77" y1="348.56" x2="1009.34" y2="438.826" gradientUnits="userSpaceOnUse">
<stop stop-color="#F7FFFF"/>
<stop offset="1" stop-color="#EFFFFF"/>
</linearGradient>
<linearGradient id="paint5_linear" x1="839.226" y1="297.692" x2="766.029" y2="323.574" gradientUnits="userSpaceOnUse">
<stop stop-color="#C0F1FF"/>
<stop offset="1" stop-color="#D8FAFF"/>
</linearGradient>
<linearGradient id="paint6_linear" x1="811.57" y1="307.476" x2="730.665" y2="347.226" gradientUnits="userSpaceOnUse">
<stop stop-color="#C4F2FF"/>
<stop offset="1" stop-color="#E1FCFF"/>
</linearGradient>
<linearGradient id="paint7_linear" x1="759.934" y1="195.712" x2="621.19" y2="226.985" gradientUnits="userSpaceOnUse">
<stop stop-color="#FAFFFF"/>
<stop offset="1" stop-color="#58CDF4"/>
</linearGradient>
<linearGradient id="paint8_linear" x1="608.677" y1="201.193" x2="458.959" y2="295.135" gradientUnits="userSpaceOnUse">
<stop stop-color="#ECFFFF"/>
<stop offset="1" stop-color="#F5FFFF"/>
</linearGradient>
<linearGradient id="paint9_linear" x1="773.005" y1="262.253" x2="615.892" y2="368.771" gradientUnits="userSpaceOnUse">
<stop stop-color="#89DEFA"/>
<stop offset="1" stop-color="#72D7F7"/>
</linearGradient>
<linearGradient id="paint10_linear" x1="766.381" y1="270.421" x2="584.649" y2="442.466" gradientUnits="userSpaceOnUse">
<stop stop-color="#E8FFFF"/>
<stop offset="1" stop-color="#ECFFFF"/>
</linearGradient>
<linearGradient id="paint11_linear" x1="921.481" y1="84.6918" x2="707.354" y2="125.216" gradientUnits="userSpaceOnUse">
<stop stop-color="#4AC8F2"/>
<stop offset="1" stop-color="#92E1FB"/>
</linearGradient>
<linearGradient id="paint12_linear" x1="668.969" y1="502.793" x2="744.006" y2="474.738" gradientUnits="userSpaceOnUse">
<stop stop-color="#4AC8F2"/>
<stop offset="1" stop-color="#92E1FB"/>
</linearGradient>
<linearGradient id="paint13_linear" x1="862.147" y1="270.972" x2="789.034" y2="333.685" gradientUnits="userSpaceOnUse">
<stop stop-color="#A6E8FE"/>
<stop offset="1" stop-color="#A1E6FE"/>
</linearGradient>
<linearGradient id="paint14_linear" x1="867.007" y1="260.993" x2="767.182" y2="295.616" gradientUnits="userSpaceOnUse">
<stop stop-color="#AFEBFF"/>
<stop offset="1" stop-color="#B0ECFF"/>
</linearGradient>
<linearGradient id="paint15_linear" x1="1013.36" y1="276.821" x2="885.812" y2="390.66" gradientUnits="userSpaceOnUse">
<stop stop-color="#D8FAFF"/>
<stop offset="1" stop-color="#BAEFFF"/>
</linearGradient>
<linearGradient id="paint16_linear" x1="1050.48" y1="277.538" x2="949.368" y2="355.982" gradientUnits="userSpaceOnUse">
<stop stop-color="#C0F1FF"/>
<stop offset="1" stop-color="#C4F2FF"/>
</linearGradient>
<linearGradient id="paint17_linear" x1="995.248" y1="280.75" x2="852.596" y2="373.965" gradientUnits="userSpaceOnUse">
<stop stop-color="#A3E7FE"/>
<stop offset="1" stop-color="#C0F1FF"/>
</linearGradient>
<linearGradient id="paint18_linear" x1="1.24508e+08" y1="-8.16071e+06" x2="1.24499e+08" y2="-8.14757e+06" gradientUnits="userSpaceOnUse">
<stop stop-color="#E8FFFF"/>
<stop offset="1" stop-color="#ECFFFF"/>
</linearGradient>
<linearGradient id="paint19_linear" x1="1.23875e+08" y1="-1.48925e+08" x2="1.2382e+08" y2="-1.48914e+08" gradientUnits="userSpaceOnUse">
<stop stop-color="#ECFFFF"/>
<stop offset="1" stop-color="#F5FFFF"/>
</linearGradient>
<linearGradient id="paint20_linear" x1="7.38277e+06" y1="-1.413e+08" x2="7.36789e+06" y2="-1.41277e+08" gradientUnits="userSpaceOnUse">
<stop stop-color="#ECFFFF"/>
<stop offset="1" stop-color="#F5FFFF"/>
</linearGradient>
<linearGradient id="paint21_linear" x1="7.42637e+06" y1="-1.41264e+08" x2="7.41149e+06" y2="-1.41241e+08" gradientUnits="userSpaceOnUse">
<stop stop-color="#ECFFFF"/>
<stop offset="1" stop-color="#F5FFFF"/>
</linearGradient>
<linearGradient id="paint22_linear" x1="522.676" y1="230.891" x2="381.552" y2="386.3" gradientUnits="userSpaceOnUse">
<stop stop-color="#E8FFFF"/>
<stop offset="1" stop-color="#EFFFFF"/>
</linearGradient>
<linearGradient id="paint23_linear" x1="8.37335e+07" y1="-1.51492e+07" x2="8.37242e+07" y2="-1.51377e+07" gradientUnits="userSpaceOnUse">
<stop stop-color="#FAFFFF"/>
<stop offset="1" stop-color="#58CDF4"/>
</linearGradient>
<linearGradient id="paint24_linear" x1="1188.89" y1="400.437" x2="1047.09" y2="411.416" gradientUnits="userSpaceOnUse">
<stop stop-color="#1CB9EC"/>
<stop offset="1" stop-color="#44C6F1"/>
</linearGradient>
<linearGradient id="paint25_linear" x1="8.76018e+07" y1="-2.10892e+07" x2="8.75808e+07" y2="-2.10774e+07" gradientUnits="userSpaceOnUse">
<stop stop-color="#C0F1FF"/>
<stop offset="1" stop-color="#C4F2FF"/>
</linearGradient>
<linearGradient id="paint26_linear" x1="-96453.2" y1="129144" x2="-96424.9" y2="129119" gradientUnits="userSpaceOnUse">
<stop stop-color="#89DEFA"/>
<stop offset="1" stop-color="#72D7F7"/>
</linearGradient>
<linearGradient id="paint27_linear" x1="1.83106e+08" y1="-9.83479e+07" x2="1.83001e+08" y2="-9.83192e+07" gradientUnits="userSpaceOnUse">
<stop stop-color="#C0F1FF"/>
<stop offset="1" stop-color="#C4F2FF"/>
</linearGradient>
<linearGradient id="paint28_linear" x1="2.15853e+08" y1="-1.08896e+08" x2="2.15806e+08" y2="-1.08881e+08" gradientUnits="userSpaceOnUse">
<stop stop-color="#E8FFFF"/>
<stop offset="1" stop-color="#ECFFFF"/>
</linearGradient>
<linearGradient id="paint29_linear" x1="1.26661e+08" y1="-5.13278e+07" x2="1.26631e+08" y2="-5.13166e+07" gradientUnits="userSpaceOnUse">
<stop stop-color="#ECFFFF"/>
<stop offset="1" stop-color="#F5FFFF"/>
</linearGradient>
<linearGradient id="paint30_linear" x1="-344963" y1="330736" x2="-344892" y2="330647" gradientUnits="userSpaceOnUse">
<stop stop-color="#E8FFFF"/>
<stop offset="1" stop-color="#EFFFFF"/>
</linearGradient>
<linearGradient id="paint31_linear" x1="8.51152e+07" y1="-2.83347e+06" x2="8.51043e+07" y2="-2.82333e+06" gradientUnits="userSpaceOnUse">
<stop stop-color="#FAFFFF"/>
<stop offset="1" stop-color="#58CDF4"/>
</linearGradient>
<linearGradient id="paint32_linear" x1="-162520" y1="618638" x2="-162432" y2="618609" gradientUnits="userSpaceOnUse">
<stop stop-color="#CBF5FF"/>
<stop offset="1" stop-color="#F1FFFF"/>
</linearGradient>
<linearGradient id="paint33_linear" x1="-179830" y1="492313" x2="-179748" y2="492277" gradientUnits="userSpaceOnUse">
<stop stop-color="#FEFFFF"/>
<stop offset="1" stop-color="#ECFFFF"/>
</linearGradient>
<linearGradient id="paint34_linear" x1="-272279" y1="488444" x2="-272177" y2="488375" gradientUnits="userSpaceOnUse">
<stop stop-color="#F7FFFF"/>
<stop offset="1" stop-color="#ECFFFF"/>
</linearGradient>
<linearGradient id="paint35_linear" x1="-190045" y1="229160" x2="-189976" y2="229092" gradientUnits="userSpaceOnUse">
<stop stop-color="#BAEFFF"/>
<stop offset="1" stop-color="#C9F5FF"/>
</linearGradient>
<linearGradient id="paint36_linear" x1="-295396" y1="538496" x2="-295196" y2="538364" gradientUnits="userSpaceOnUse">
<stop stop-color="#C0F1FF"/>
<stop offset="1" stop-color="#D4F9FF"/>
</linearGradient>
<linearGradient id="paint37_linear" x1="-485584" y1="235459" x2="-485544" y2="235360" gradientUnits="userSpaceOnUse">
<stop stop-color="#CDF6FF"/>
<stop offset="1" stop-color="#EAFFFF"/>
</linearGradient>
<linearGradient id="paint38_linear" x1="-485817" y1="292928" x2="-485753" y2="292802" gradientUnits="userSpaceOnUse">
<stop stop-color="#F7FFFF"/>
<stop offset="1" stop-color="#EFFFFF"/>
</linearGradient>
<linearGradient id="paint39_linear" x1="-101991" y1="239000" x2="-101924" y2="238965" gradientUnits="userSpaceOnUse">
<stop stop-color="#C0F1FF"/>
<stop offset="1" stop-color="#D8FAFF"/>
</linearGradient>
<linearGradient id="paint40_linear" x1="-241655" y1="237150" x2="-241589" y2="237069" gradientUnits="userSpaceOnUse">
<stop stop-color="#C4F2FF"/>
<stop offset="1" stop-color="#E1FCFF"/>
</linearGradient>
<linearGradient id="paint41_linear" x1="-241529" y1="237259" x2="-241463" y2="237178" gradientUnits="userSpaceOnUse">
<stop stop-color="#C4F2FF"/>
<stop offset="1" stop-color="#E1FCFF"/>
</linearGradient>
<linearGradient id="paint42_linear" x1="3.22949e+07" y1="-5.00498e+07" x2="3.22831e+07" y2="-5.00333e+07" gradientUnits="userSpaceOnUse">
<stop stop-color="#C4F2FF"/>
<stop offset="1" stop-color="#E1FCFF"/>
</linearGradient>
<linearGradient id="paint43_linear" x1="2.07152e+08" y1="-2.51318e+08" x2="2.07091e+08" y2="-2.51323e+08" gradientUnits="userSpaceOnUse">
<stop stop-color="#AFEBFF"/>
<stop offset="1" stop-color="#B0ECFF"/>
</linearGradient>
<linearGradient id="paint44_linear" x1="1.20304e+08" y1="-1.14085e+08" x2="1.20193e+08" y2="-1.14082e+08" gradientUnits="userSpaceOnUse">
<stop stop-color="#AFEBFF"/>
<stop offset="1" stop-color="#B0ECFF"/>
</linearGradient>
<linearGradient id="paint45_linear" x1="1.19363e+08" y1="-7.18121e+07" x2="1.19258e+08" y2="-7.17886e+07" gradientUnits="userSpaceOnUse">
<stop stop-color="#1CB9EC"/>
<stop offset="1" stop-color="#44C6F1"/>
</linearGradient>
<linearGradient id="paint46_linear" x1="-390848" y1="521646" x2="-390670" y2="521488" gradientUnits="userSpaceOnUse">
<stop stop-color="#89DEFA"/>
<stop offset="1" stop-color="#72D7F7"/>
</linearGradient>
<linearGradient id="paint47_linear" x1="-391021" y1="521652" x2="-390843" y2="521494" gradientUnits="userSpaceOnUse">
<stop stop-color="#89DEFA"/>
<stop offset="1" stop-color="#72D7F7"/>
</linearGradient>
<linearGradient id="paint48_linear" x1="2.34407e+08" y1="-5.53218e+07" x2="2.3434e+08" y2="-5.52825e+07" gradientUnits="userSpaceOnUse">
<stop stop-color="#4AC8F2"/>
<stop offset="1" stop-color="#92E1FB"/>
</linearGradient>
<linearGradient id="paint49_linear" x1="2.3443e+08" y1="-5.52812e+07" x2="2.34363e+08" y2="-5.52412e+07" gradientUnits="userSpaceOnUse">
<stop stop-color="#4AC8F2"/>
<stop offset="1" stop-color="#92E1FB"/>
</linearGradient>
<linearGradient id="paint50_linear" x1="2.3443e+08" y1="-5.52813e+07" x2="2.34362e+08" y2="-5.52413e+07" gradientUnits="userSpaceOnUse">
<stop stop-color="#4AC8F2"/>
<stop offset="1" stop-color="#92E1FB"/>
</linearGradient>
<linearGradient id="paint51_linear" x1="1.59408e+08" y1="2.44221e+08" x2="1.59309e+08" y2="2.44199e+08" gradientUnits="userSpaceOnUse">
<stop stop-color="#AFEBFF"/>
<stop offset="1" stop-color="#B0ECFF"/>
</linearGradient>
<linearGradient id="paint52_linear" x1="-548145" y1="442379" x2="-547929" y2="442054" gradientUnits="userSpaceOnUse">
<stop stop-color="#4AC8F2"/>
<stop offset="1" stop-color="#92E1FB"/>
</linearGradient>
<linearGradient id="paint53_linear" x1="-548632" y1="442305" x2="-548416" y2="441980" gradientUnits="userSpaceOnUse">
<stop stop-color="#4AC8F2"/>
<stop offset="1" stop-color="#92E1FB"/>
</linearGradient>
<linearGradient id="paint54_linear" x1="-339277" y1="70365.5" x2="-339269" y2="70324.2" gradientUnits="userSpaceOnUse">
<stop stop-color="#A6E8FE"/>
<stop offset="1" stop-color="#A1E6FE"/>
</linearGradient>
<linearGradient id="paint55_linear" x1="-265280" y1="256527" x2="-265201" y2="256429" gradientUnits="userSpaceOnUse">
<stop stop-color="#AFEBFF"/>
<stop offset="1" stop-color="#B0ECFF"/>
</linearGradient>
<linearGradient id="paint56_linear" x1="331944" y1="163862" x2="331825" y2="163821" gradientUnits="userSpaceOnUse">
<stop stop-color="#AFEBFF"/>
<stop offset="1" stop-color="#B0ECFF"/>
</linearGradient>
<linearGradient id="paint57_linear" x1="-489534" y1="490393" x2="-489383" y2="490212" gradientUnits="userSpaceOnUse">
<stop stop-color="#D8FAFF"/>
<stop offset="1" stop-color="#BAEFFF"/>
</linearGradient>
<linearGradient id="paint58_linear" x1="-4.45376e+07" y1="-1.75316e+08" x2="-4.45345e+07" y2="-1.75243e+08" gradientUnits="userSpaceOnUse">
<stop stop-color="#D8FAFF"/>
<stop offset="1" stop-color="#BAEFFF"/>
</linearGradient>
<linearGradient id="paint59_linear" x1="-461642" y1="460042" x2="-461555" y2="459938" gradientUnits="userSpaceOnUse">
<stop stop-color="#C0F1FF"/>
<stop offset="1" stop-color="#C4F2FF"/>
</linearGradient>
<linearGradient id="paint60_linear" x1="-325958" y1="490877" x2="-325802" y2="490753" gradientUnits="userSpaceOnUse">
<stop stop-color="#A3E7FE"/>
<stop offset="1" stop-color="#C0F1FF"/>
</linearGradient>
<linearGradient id="paint61_linear" x1="-281329" y1="245773" x2="-281303" y2="245736" gradientUnits="userSpaceOnUse">
<stop stop-color="#C0F1FF"/>
<stop offset="1" stop-color="#C4F2FF"/>
</linearGradient>
<linearGradient id="paint62_linear" x1="1.86993e+08" y1="-5.07291e+07" x2="1.86942e+08" y2="-5.07019e+07" gradientUnits="userSpaceOnUse">
<stop stop-color="#C0F1FF"/>
<stop offset="1" stop-color="#C4F2FF"/>
</linearGradient>
</defs>
</svg>
