<svg id="Layer_1" data-name="Layer 1" xmlns="http://www.w3.org/2000/svg" viewBox="0 0 182.18 80"><defs><style>.cls-1{fill:#43bfee;}.cls-2{fill:#475c78;}.cls-3{fill:#fdea1b;}.cls-4{fill:#7db828;}</style></defs><path class="cls-1" d="M13.55,7.53c.53,20.72,13.26,17.92,22.74,24.24,6.71,4,7.4,11.75,3.82,16-6.54,7.7-15,6.84-20.78,2.83C4.21,41.68,2.92,22.9,13.55,7.53Z"/><path class="cls-2" d="M69.76,25.85v-.12a2.09,2.09,0,0,0,.55-.1.65.65,0,0,0,.31-.25,1,1,0,0,0,.13-.43c0-.18,0-.4,0-.67V21c0-.27,0-.49,0-.67a1,1,0,0,0-.13-.43.58.58,0,0,0-.31-.24,1.91,1.91,0,0,0-.57-.11v-.12l.73,0h3.61c.26,0,.51,0,.77,0L75,21.18l-.13,0a3.78,3.78,0,0,0-.37-.84,1.34,1.34,0,0,0-.45-.44,1.28,1.28,0,0,0-.54-.18,6.53,6.53,0,0,0-.67,0h-.58l-.27,0-.32,0v2.54l.65-.13a5.39,5.39,0,0,1,.8-.06,2.65,2.65,0,0,1,.82.13,2.28,2.28,0,0,1,1.31,1,1.59,1.59,0,0,1,.21.82,1.62,1.62,0,0,1-.23.88,1.83,1.83,0,0,1-.56.55,2.42,2.42,0,0,1-.76.3,3.58,3.58,0,0,1-.77.09l-.49,0-.52,0-.51,0H70.45C70.2,25.83,70,25.83,69.76,25.85Zm3-.25a2.69,2.69,0,0,0,.65-.08,1.32,1.32,0,0,0,.55-.25,1.29,1.29,0,0,0,.37-.48,1.83,1.83,0,0,0,.13-.75,1.62,1.62,0,0,0-.13-.68,1.87,1.87,0,0,0-.34-.52,1.54,1.54,0,0,0-.49-.32A1.32,1.32,0,0,0,73,22.4a3.55,3.55,0,0,0-.73.08,4,4,0,0,0-.59.16v2.74a1.18,1.18,0,0,0,.25.1,1.8,1.8,0,0,0,.32.06l.31,0Z"/><path class="cls-2" d="M76.78,26a1,1,0,0,1-.65-.21.65.65,0,0,1-.23-.52.57.57,0,0,1,.18-.45.63.63,0,0,1,.41-.15.45.45,0,0,1,.24.06.46.46,0,0,1,.17.17.55.55,0,0,1,.1.22,1.23,1.23,0,0,1,0,.25.45.45,0,0,0,.28-.11.79.79,0,0,0,.27-.35,3.47,3.47,0,0,0,.22-.65,8.15,8.15,0,0,0,.17-1c0-.24.05-.47.08-.71s0-.47.05-.68,0-.41,0-.59,0-.32,0-.44a4.4,4.4,0,0,0,0-.58.62.62,0,0,0-.13-.34.55.55,0,0,0-.3-.17,3.1,3.1,0,0,0-.56-.08v-.12l.78,0h4q.32,0,.63,0v.12a1.63,1.63,0,0,0-.53.11.54.54,0,0,0-.29.24.88.88,0,0,0-.12.43,6.19,6.19,0,0,0,0,.67v3.24a6.19,6.19,0,0,0,0,.67.88.88,0,0,0,.12.43.65.65,0,0,0,.31.25,2.18,2.18,0,0,0,.56.1v.12l-.74,0H80.46c-.23,0-.47,0-.7,0v-.12a2.08,2.08,0,0,0,.54-.1.68.68,0,0,0,.3-.25,1,1,0,0,0,.13-.43c0-.18,0-.4,0-.67V19.82l-.47,0-.55,0a5.4,5.4,0,0,0-.61,0,.61.61,0,0,0-.37.13.51.51,0,0,0-.14.25,2.66,2.66,0,0,0,0,.35l-.2,2.3a3.14,3.14,0,0,0,0,.32c0,.15,0,.32-.06.52s-.06.39-.1.6a5,5,0,0,1-.13.55,2.42,2.42,0,0,1-.27.58,1.57,1.57,0,0,1-.31.35.91.91,0,0,1-.34.17A1.37,1.37,0,0,1,76.78,26Z"/><path class="cls-2" d="M83,25.73a1.16,1.16,0,0,0,.49-.21,1.52,1.52,0,0,0,.34-.33,2,2,0,0,0,.23-.43q.1-.23.21-.48l1.67-4.12L86,20a.36.36,0,0,0,0-.1.64.64,0,0,0,0-.15.91.91,0,0,0-.09-.17,2.1,2.1,0,0,0,.44-.13l.41-.16,2,5.54a1.51,1.51,0,0,0,.38.6,1.33,1.33,0,0,0,.72.27v.12l-.76,0H87.49l-.29,0-.31,0v-.12a1.65,1.65,0,0,0,.68-.21.47.47,0,0,0,.28-.43.4.4,0,0,0,0-.15.94.94,0,0,1-.06-.15L87.13,23h-2l-.64,1.75a1.21,1.21,0,0,0,0,.14.27.27,0,0,0,0,.12.55.55,0,0,0,.1.31.82.82,0,0,0,.25.2,1.3,1.3,0,0,0,.3.13,1.13,1.13,0,0,0,.26.07v.12c-.19,0-.38,0-.58,0H83.56l-.58,0Zm4-3-.87-2.46-1,2.46Z"/><path class="cls-2" d="M90.23,25.73a2.09,2.09,0,0,0,.55-.1.7.7,0,0,0,.31-.25,1,1,0,0,0,.13-.43,6.19,6.19,0,0,0,0-.67V21a6.19,6.19,0,0,0,0-.67,1,1,0,0,0-.13-.43.62.62,0,0,0-.31-.24,1.71,1.71,0,0,0-.55-.11v-.12l.36,0,.46,0h3.68l.36,0h.39l.13,1.91-.14,0a3.54,3.54,0,0,0-.36-.88,1.54,1.54,0,0,0-.48-.5,1.75,1.75,0,0,0-.69-.22,9.31,9.31,0,0,0-1,0h-.42l-.22,0h-.19v4.63a4.51,4.51,0,0,0,0,.61.68.68,0,0,0,.16.34.77.77,0,0,0,.36.2l.63.14v.12l-.83,0H91c-.24,0-.48,0-.72,0Z"/><path class="cls-2" d="M99.9,26a4.26,4.26,0,0,1-1.39-.22,3.78,3.78,0,0,1-1.14-.66,3.25,3.25,0,0,1-.77-1.05,3.38,3.38,0,0,1-.28-1.41,3.3,3.3,0,0,1,.28-1.4,3.18,3.18,0,0,1,.77-1.06,3.56,3.56,0,0,1,1.14-.65,4.32,4.32,0,0,1,2.78,0,3.36,3.36,0,0,1,1.14.65,3.05,3.05,0,0,1,.77,1.06,3.3,3.3,0,0,1,.29,1.4,3.38,3.38,0,0,1-.29,1.41,3.11,3.11,0,0,1-.77,1.05,3.56,3.56,0,0,1-1.14.66A4.22,4.22,0,0,1,99.9,26Zm0-.35a2.38,2.38,0,0,0,1.08-.24,2.57,2.57,0,0,0,.8-.66,3,3,0,0,0,.51-1,3.84,3.84,0,0,0,0-2.26,3.15,3.15,0,0,0-.51-1,2.57,2.57,0,0,0-.8-.66,2.38,2.38,0,0,0-1.08-.24,2.31,2.31,0,0,0-1.07.24,2.61,2.61,0,0,0-.81.66,3.13,3.13,0,0,0-.5,1,3.84,3.84,0,0,0,0,2.26,3,3,0,0,0,.5,1,2.61,2.61,0,0,0,.81.66A2.31,2.31,0,0,0,99.9,25.65Z"/><path class="cls-2" d="M103.74,27.5c0-.25.06-.56.09-.92s0-.7,0-1a1.08,1.08,0,0,0,.56-.13,1,1,0,0,0,.35-.3,3.57,3.57,0,0,0,.29-.52,4.79,4.79,0,0,0,.23-.59c.07-.21.13-.39.18-.57s.09-.31.12-.42c.1-.43.18-.8.23-1.11a7.2,7.2,0,0,0,.09-.86c0-.27,0-.49,0-.67a1,1,0,0,0-.13-.43.6.6,0,0,0-.3-.24,1.91,1.91,0,0,0-.56-.11v-.12l.79,0h4.12c.21,0,.42,0,.62,0v.12a1.69,1.69,0,0,0-.53.11.57.57,0,0,0-.29.24,1.16,1.16,0,0,0-.12.43,6.54,6.54,0,0,0,0,.67v3.15a5.94,5.94,0,0,0,0,.65.69.69,0,0,0,.12.39.55.55,0,0,0,.32.21,4.09,4.09,0,0,0,.6.1c0,.34,0,.69,0,1s.06.67.09.92l-.13,0a3.43,3.43,0,0,0-.3-.79,1.83,1.83,0,0,0-.44-.54,1.59,1.59,0,0,0-.61-.3,3,3,0,0,0-.84-.1h-2.3a3,3,0,0,0-.83.1,1.66,1.66,0,0,0-.61.3,1.83,1.83,0,0,0-.44.54,3.43,3.43,0,0,0-.3.79Zm3.28-2,.79,0c.27,0,.53,0,.79-.06V19.82l-.47,0-.51,0h-.39l-.33,0a.64.64,0,0,0-.43.19.71.71,0,0,0-.16.39l-.08.87A10.75,10.75,0,0,1,106,23c-.12.47-.22.84-.31,1.13s-.13.39-.18.52a2.94,2.94,0,0,1-.13.32,1.6,1.6,0,0,0-.07.19.27.27,0,0,0,0,.12.21.21,0,0,0,.08.16.31.31,0,0,0,.22.07l.74.05Z"/><path class="cls-2" d="M111.37,25.73a2.08,2.08,0,0,0,.54-.1.6.6,0,0,0,.29-.25,1,1,0,0,0,.13-.43,6.54,6.54,0,0,0,0-.67V21a6.54,6.54,0,0,0,0-.67,1,1,0,0,0-.13-.43.56.56,0,0,0-.3-.24,1.83,1.83,0,0,0-.55-.11v-.12l.79,0h1.42q.33,0,.63,0v.12a1.69,1.69,0,0,0-.53.11.57.57,0,0,0-.29.24,1.16,1.16,0,0,0-.12.43,6.54,6.54,0,0,0,0,.67v3.24a6.54,6.54,0,0,0,0,.67,1,1,0,0,0,.13.43.63.63,0,0,0,.3.25,2.26,2.26,0,0,0,.56.1v.12c-.24,0-.49,0-.73,0h-1.45c-.23,0-.46,0-.69,0Z"/><path class="cls-2" d="M115.06,25.73a2.08,2.08,0,0,0,.54-.1.68.68,0,0,0,.3-.25A1.16,1.16,0,0,0,116,25a6.19,6.19,0,0,0,0-.67V21a6.19,6.19,0,0,0,0-.67,1.16,1.16,0,0,0-.12-.43.58.58,0,0,0-.31-.24,1.83,1.83,0,0,0-.55-.11v-.12l.79,0h1.43q.31,0,.63,0v.12a1.7,1.7,0,0,0-.54.11.57.57,0,0,0-.29.24,1.16,1.16,0,0,0-.12.43c0,.18,0,.4,0,.67v3.54l3.52-4.44a.6.6,0,0,0-.28-.4,2,2,0,0,0-.66-.15v-.12l.79,0h1.43q.33,0,.63,0v.12a1.69,1.69,0,0,0-.53.11.54.54,0,0,0-.29.24.88.88,0,0,0-.12.43,6.19,6.19,0,0,0,0,.67v3.24a6.19,6.19,0,0,0,0,.67,1,1,0,0,0,.12.43.65.65,0,0,0,.31.25,2.18,2.18,0,0,0,.56.1v.12c-.24,0-.49,0-.74,0h-1.44l-.7,0v-.12a2.09,2.09,0,0,0,.55-.1.71.71,0,0,0,.29-.25,1,1,0,0,0,.13-.43c0-.18,0-.4,0-.67V20.56L117,25a1,1,0,0,0,.09.31.51.51,0,0,0,.17.21,1,1,0,0,0,.29.12,2.22,2.22,0,0,0,.43.06v.12c-.24,0-.49,0-.73,0h-1.45c-.23,0-.46,0-.69,0Zm3.66-6.63a1.71,1.71,0,0,1-.57-.08,1.46,1.46,0,0,1-.41-.23.94.94,0,0,1-.26-.31.72.72,0,0,1-.09-.34.57.57,0,0,1,.09-.29.35.35,0,0,1,.33-.15.39.39,0,0,1,.3.11.4.4,0,0,1,.1.28.54.54,0,0,1,0,.18.55.55,0,0,1-.14.19.71.71,0,0,0,.18.27.76.76,0,0,0,.51.13.81.81,0,0,0,.29,0,.58.58,0,0,0,.21-.09.71.71,0,0,0,.12-.13c0-.05,0-.1.07-.14a.45.45,0,0,1-.14-.19.62.62,0,0,1,0-.18.45.45,0,0,1,.1-.28.42.42,0,0,1,.31-.11.35.35,0,0,1,.33.15.57.57,0,0,1,.09.29.72.72,0,0,1-.09.34.94.94,0,0,1-.26.31,1.46,1.46,0,0,1-.41.23A1.71,1.71,0,0,1,118.72,19.1Z"/><path class="cls-2" d="M123.13,25.73a2.08,2.08,0,0,0,.54-.1.68.68,0,0,0,.3-.25,1,1,0,0,0,.12-.43,6.19,6.19,0,0,0,0-.67V21a6.19,6.19,0,0,0,0-.67,1,1,0,0,0-.12-.43.58.58,0,0,0-.31-.24,1.83,1.83,0,0,0-.55-.11v-.12l.79,0h1.43q.32,0,.63,0v.12a1.7,1.7,0,0,0-.54.11.57.57,0,0,0-.29.24,1.16,1.16,0,0,0-.12.43c0,.18,0,.4,0,.67v1.18h3.59V21c0-.27,0-.49,0-.67a1,1,0,0,0-.13-.43.6.6,0,0,0-.3-.24,1.84,1.84,0,0,0-.56-.11v-.12l.79,0h1.43q.33,0,.63,0v.12a1.69,1.69,0,0,0-.53.11.54.54,0,0,0-.29.24.88.88,0,0,0-.12.43,6.19,6.19,0,0,0,0,.67v3.24a6.19,6.19,0,0,0,0,.67,1,1,0,0,0,.12.43.65.65,0,0,0,.31.25,2.26,2.26,0,0,0,.56.1v.12c-.24,0-.49,0-.73,0h-1.45l-.7,0v-.12a2.09,2.09,0,0,0,.55-.1.65.65,0,0,0,.29-.25,1,1,0,0,0,.13-.43c0-.18,0-.4,0-.67V22.53H125v1.75c0,.27,0,.49,0,.67a1,1,0,0,0,.13.43.68.68,0,0,0,.3.25,2.36,2.36,0,0,0,.56.1v.12c-.24,0-.49,0-.73,0h-1.44c-.24,0-.47,0-.7,0Z"/><path class="cls-2" d="M131.2,25.73a2.08,2.08,0,0,0,.54-.1.68.68,0,0,0,.3-.25,1,1,0,0,0,.12-.43,6.19,6.19,0,0,0,0-.67V21a6.19,6.19,0,0,0,0-.67,1,1,0,0,0-.12-.43.58.58,0,0,0-.31-.24,1.77,1.77,0,0,0-.55-.11v-.12l.79,0h1.43q.32,0,.63,0v.12a1.7,1.7,0,0,0-.54.11.62.62,0,0,0-.29.24,1.16,1.16,0,0,0-.12.43c0,.18,0,.4,0,.67v3.54l3.52-4.44a.6.6,0,0,0-.28-.4,2,2,0,0,0-.65-.15v-.12l.78,0h1.43q.33,0,.63,0v.12a1.69,1.69,0,0,0-.53.11.54.54,0,0,0-.29.24,1.16,1.16,0,0,0-.12.43,6.19,6.19,0,0,0,0,.67v3.24a6.19,6.19,0,0,0,0,.67,1.16,1.16,0,0,0,.12.43.65.65,0,0,0,.31.25,2.26,2.26,0,0,0,.56.1v.12c-.24,0-.49,0-.73,0h-1.45l-.7,0v-.12a2.09,2.09,0,0,0,.55-.1.65.65,0,0,0,.29-.25,1,1,0,0,0,.13-.43c0-.18,0-.4,0-.67V20.56L133.09,25a1,1,0,0,0,.09.31.51.51,0,0,0,.17.21,1,1,0,0,0,.29.12,2.34,2.34,0,0,0,.44.06v.12l-.74,0H131.9c-.24,0-.47,0-.7,0Z"/><path class="cls-2" d="M139.27,25.73a2.08,2.08,0,0,0,.54-.1.68.68,0,0,0,.3-.25,1,1,0,0,0,.12-.43,6.19,6.19,0,0,0,0-.67V21a6.19,6.19,0,0,0,0-.67,1,1,0,0,0-.12-.43.58.58,0,0,0-.31-.24,1.77,1.77,0,0,0-.55-.11v-.12l.79,0h1.43q.32,0,.63,0v.12a1.7,1.7,0,0,0-.54.11.62.62,0,0,0-.29.24,1.16,1.16,0,0,0-.12.43c0,.18,0,.4,0,.67v3.54l3.53-4.44a.65.65,0,0,0-.29-.4,2,2,0,0,0-.65-.15v-.12l.79,0h1.42q.33,0,.63,0v.12a1.69,1.69,0,0,0-.53.11.57.57,0,0,0-.29.24,1.16,1.16,0,0,0-.12.43,6.54,6.54,0,0,0,0,.67v3.24a6.54,6.54,0,0,0,0,.67,1,1,0,0,0,.13.43.63.63,0,0,0,.3.25,2.26,2.26,0,0,0,.56.1v.12c-.24,0-.49,0-.73,0h-1.45c-.23,0-.46,0-.69,0v-.12a2.08,2.08,0,0,0,.54-.1.6.6,0,0,0,.29-.25,1,1,0,0,0,.13-.43,6.54,6.54,0,0,0,0-.67V20.56L141.16,25a1,1,0,0,0,.09.31.51.51,0,0,0,.17.21,1,1,0,0,0,.29.12,2.34,2.34,0,0,0,.44.06v.12l-.74,0H140c-.24,0-.47,0-.7,0Zm3.66-6.63a1.71,1.71,0,0,1-.57-.08,1.46,1.46,0,0,1-.41-.23.94.94,0,0,1-.26-.31.72.72,0,0,1-.09-.34.57.57,0,0,1,.09-.29.35.35,0,0,1,.33-.15.42.42,0,0,1,.31.11.45.45,0,0,1,.1.28.62.62,0,0,1-.05.18.45.45,0,0,1-.14.19.64.64,0,0,0,.19.27.71.71,0,0,0,.5.13.87.87,0,0,0,.3,0,.53.53,0,0,0,.2-.09l.13-.13a.53.53,0,0,0,.06-.14.55.55,0,0,1-.14-.19.54.54,0,0,1,0-.18.4.4,0,0,1,.1-.28.39.39,0,0,1,.3-.11.35.35,0,0,1,.33.15.57.57,0,0,1,.09.29.72.72,0,0,1-.09.34.94.94,0,0,1-.26.31,1.46,1.46,0,0,1-.41.23A1.71,1.71,0,0,1,142.93,19.1Z"/><path class="cls-2" d="M152.21,25.89a2.31,2.31,0,0,0,.47-.09.57.57,0,0,0,.44-.44,1.53,1.53,0,0,0,.07-.42,1.54,1.54,0,0,1-.47.12,4,4,0,0,1-.65,0,2.14,2.14,0,0,1-.76-.15,2.42,2.42,0,0,1-.75-.45,2.54,2.54,0,0,1-.57-.78,2.76,2.76,0,0,1-.22-1.12,2.44,2.44,0,0,1,.23-1.09,2.28,2.28,0,0,1,.6-.73,2.55,2.55,0,0,1,.82-.42,3.11,3.11,0,0,1,.9-.13l.47,0a2.7,2.7,0,0,1,.39.08,1.93,1.93,0,0,0-.07-.4.76.76,0,0,0-.16-.26.62.62,0,0,0-.29-.15,2.31,2.31,0,0,0-.47-.09v-.11l.79,0h1.43l.63,0v.11a2.23,2.23,0,0,0-.45.09.58.58,0,0,0-.28.15.54.54,0,0,0-.16.26,3,3,0,0,0-.07.4,2.57,2.57,0,0,1,.4-.08l.47,0a3.11,3.11,0,0,1,.9.13,2.55,2.55,0,0,1,.82.42,2.05,2.05,0,0,1,.6.73,2.31,2.31,0,0,1,.23,1.09,2.6,2.6,0,0,1-.22,1.12,2.54,2.54,0,0,1-.57.78A2.49,2.49,0,0,1,156,25a2.18,2.18,0,0,1-.76.15,4.22,4.22,0,0,1-.67,0,1.55,1.55,0,0,1-.46-.12,2.11,2.11,0,0,0,.06.42.64.64,0,0,0,.16.28.66.66,0,0,0,.3.16,2.54,2.54,0,0,0,.49.09V26l-.74,0h-1.44l-.7,0Zm.2-1.13a1.67,1.67,0,0,0,.79-.21V20.7l-.32-.1a1.27,1.27,0,0,0-.34,0,1.73,1.73,0,0,0-1.32.56,1.93,1.93,0,0,0-.35.65,2.57,2.57,0,0,0-.13.85,2.62,2.62,0,0,0,.42,1.59A1.45,1.45,0,0,0,152.41,24.76Zm2.46,0a1.47,1.47,0,0,0,1.25-.55,2.69,2.69,0,0,0,.41-1.59,2.86,2.86,0,0,0-.12-.85,2.14,2.14,0,0,0-.36-.65,1.7,1.7,0,0,0-.57-.41,1.79,1.79,0,0,0-.75-.15,1.22,1.22,0,0,0-.34,0l-.32.1v3.85A1.71,1.71,0,0,0,154.87,24.76Z"/><path class="cls-2" d="M161.93,26a4.26,4.26,0,0,1-1.39-.22,3.56,3.56,0,0,1-1.14-.66,3.25,3.25,0,0,1-.77-1.05,3.38,3.38,0,0,1-.28-1.41,3.3,3.3,0,0,1,.28-1.4,3.18,3.18,0,0,1,.77-1.06,3.36,3.36,0,0,1,1.14-.65,4.32,4.32,0,0,1,2.78,0,3.36,3.36,0,0,1,1.14.65,3.18,3.18,0,0,1,.77,1.06,3.3,3.3,0,0,1,.29,1.4,3.38,3.38,0,0,1-.29,1.41,3.25,3.25,0,0,1-.77,1.05,3.56,3.56,0,0,1-1.14.66A4.26,4.26,0,0,1,161.93,26Zm0-.35a2.38,2.38,0,0,0,1.08-.24,2.69,2.69,0,0,0,.8-.66,2.83,2.83,0,0,0,.5-1,3.64,3.64,0,0,0,0-2.26,2.93,2.93,0,0,0-.5-1,2.69,2.69,0,0,0-.8-.66,2.38,2.38,0,0,0-1.08-.24,2.31,2.31,0,0,0-1.07.24,2.61,2.61,0,0,0-.81.66,2.93,2.93,0,0,0-.5,1,3.64,3.64,0,0,0,0,2.26,2.83,2.83,0,0,0,.5,1,2.61,2.61,0,0,0,.81.66A2.31,2.31,0,0,0,161.93,25.65Z"/><path class="cls-2" d="M166.34,25.73a2.08,2.08,0,0,0,.54-.1.68.68,0,0,0,.3-.25,1,1,0,0,0,.12-.43,6.19,6.19,0,0,0,0-.67V21a6.19,6.19,0,0,0,0-.67,1,1,0,0,0-.12-.43.58.58,0,0,0-.31-.24,1.77,1.77,0,0,0-.55-.11v-.12l.79,0h1.43q.32,0,.63,0v.12a1.57,1.57,0,0,0-.53.11.6.6,0,0,0-.3.24,1.16,1.16,0,0,0-.12.43c0,.18,0,.4,0,.67v1.18h3.59V21a6.54,6.54,0,0,0,0-.67,1,1,0,0,0-.13-.43.56.56,0,0,0-.3-.24,1.83,1.83,0,0,0-.55-.11v-.12l.79,0H173q.33,0,.63,0v.12a1.69,1.69,0,0,0-.53.11.57.57,0,0,0-.29.24,1.16,1.16,0,0,0-.12.43,6.54,6.54,0,0,0,0,.67v3.24a6.54,6.54,0,0,0,0,.67,1,1,0,0,0,.13.43.63.63,0,0,0,.3.25,2.26,2.26,0,0,0,.56.1v.12c-.24,0-.49,0-.73,0H171.5c-.23,0-.46,0-.69,0v-.12a2.08,2.08,0,0,0,.54-.1.6.6,0,0,0,.29-.25,1,1,0,0,0,.13-.43,6.54,6.54,0,0,0,0-.67V22.53H168.2v1.75c0,.27,0,.49,0,.67a1,1,0,0,0,.13.43.68.68,0,0,0,.3.25,2.36,2.36,0,0,0,.57.1v.12l-.74,0H167c-.24,0-.47,0-.7,0Z"/><path class="cls-2" d="M174,27.5c0-.25.06-.56.09-.92s0-.7,0-1a1.08,1.08,0,0,0,.56-.13,1,1,0,0,0,.35-.3,3.57,3.57,0,0,0,.29-.52c.09-.2.17-.39.24-.59s.12-.39.18-.57.09-.31.11-.42c.1-.43.18-.8.23-1.11a7.2,7.2,0,0,0,.09-.86c0-.27,0-.49,0-.67a1,1,0,0,0-.13-.43.6.6,0,0,0-.3-.24,1.84,1.84,0,0,0-.56-.11v-.12l.79,0h4.12l.63,0v.12a1.7,1.7,0,0,0-.54.11.57.57,0,0,0-.29.24,1.16,1.16,0,0,0-.12.43,6.54,6.54,0,0,0,0,.67v3.15a5.94,5.94,0,0,0,0,.65.69.69,0,0,0,.12.39.58.58,0,0,0,.32.21,4.09,4.09,0,0,0,.6.1c0,.34,0,.69,0,1s.06.67.09.92l-.13,0a3.43,3.43,0,0,0-.3-.79,1.83,1.83,0,0,0-.44-.54,1.59,1.59,0,0,0-.61-.3,3,3,0,0,0-.84-.1h-2.3a3,3,0,0,0-.83.1,1.66,1.66,0,0,0-.61.3,1.83,1.83,0,0,0-.44.54,3.43,3.43,0,0,0-.3.79Zm3.29-2,.79,0q.39,0,.78-.06V19.82l-.47,0-.51,0h-.39l-.33,0a.64.64,0,0,0-.43.19.71.71,0,0,0-.16.39l-.08.87a10.75,10.75,0,0,1-.27,1.72c-.11.47-.22.84-.31,1.13s-.13.39-.18.52a2.94,2.94,0,0,1-.13.32,1.6,1.6,0,0,0-.07.19.27.27,0,0,0,0,.12.21.21,0,0,0,.08.16.31.31,0,0,0,.22.07l.74.05Z"/><path class="cls-2" d="M.12,40.94s3.52-.38,4,4.26S4,50.42,6.69,54.12c-1.24-8.73,2.6-3.64,2.85-3.39a11.52,11.52,0,0,0,9.58,6.32,12.49,12.49,0,0,1,9.44,9.87c0,1.27,0,13.08,0,13.08s-8.15-.32-9.29-1.9.64-10-7-12.32C6.61,63.55,3.45,60.08,1.76,56-.09,51.47-.16,46.19.12,40.94Z"/><path class="cls-2" d="M58.74,40.94s-3.52-.38-4,4.26.09,5.22-2.57,8.92c.32-6.6-2.6-3.64-2.86-3.39a11.48,11.48,0,0,1-9.57,6.32,12,12,0,0,0-9.16,9.87L30.27,80s8.14-.32,9.29-1.9-.64-10,7-12.32C58.52,61.1,59.28,51,58.74,40.94Z"/><path class="cls-2" d="M72.29,43.83l3.15-3.61L72.29,36.5a1,1,0,0,0-.78-.36l-.27,0-.38.09a1.29,1.29,0,0,1-.32,0q-.75,0-.75-.72c0-.52.31-.77.93-.77h.07l1.13.09c.38,0,.7,0,1,0s.63,0,1.12-.06.84-.07,1.08-.07c.62,0,.93.25.93.77s-.28.72-.86.72a1.27,1.27,0,0,1-.34,0l-.34-.09h-.13c-.06,0-.09,0-.09,0a.91.91,0,0,0,.2.32L76.5,39l2.16-2.5a.62.62,0,0,0,.2-.32s0,0-.11,0a1.41,1.41,0,0,0-.37.07,2,2,0,0,1-.4.06c-.55,0-.82-.25-.82-.77s.32-.75,1-.75l1.21.12c.33,0,.68,0,1.06,0s.78,0,1.2-.06a8.67,8.67,0,0,1,.91-.07c.67,0,1,.25,1,.77a.67.67,0,0,1-.77.75,2.16,2.16,0,0,1-.52-.09,2.24,2.24,0,0,0-.52-.09q-.56,0-1.5,1.08l-2.63,3,3.54,4.17a1,1,0,0,0,.77.39,3.21,3.21,0,0,0,.42,0,2.82,2.82,0,0,1,.42,0q.81,0,.81.72c0,.53-.32.8-1,.8h-.18l-.89-.12a9.75,9.75,0,0,0-1.08,0,10.14,10.14,0,0,0-1.23.07l-.82.09h-.25c-.71,0-1.06-.25-1.06-.73s.28-.79.84-.79a5.73,5.73,0,0,1,.84.09.51.51,0,0,0,.16,0c.15,0,.22-.06.22-.18a.19.19,0,0,0-.07-.14L79,44.37l-2.52-2.95L73.9,44.37a.49.49,0,0,0-.16.27c0,.08.07.12.22.12a3.89,3.89,0,0,0,.48,0,3.5,3.5,0,0,1,.48,0c.65,0,1,.26,1,.79s-.32.73-1,.73H74.6l-.91-.09a10.89,10.89,0,0,0-1.2-.07,7.61,7.61,0,0,0-1,.07,10.8,10.8,0,0,1-1.13.09c-.64,0-.95-.26-.95-.78s.27-.74.81-.74l.41,0,.41,0Q71.49,44.73,72.29,43.83Z"/><path class="cls-2" d="M87.28,46.19a.53.53,0,0,1-.49-.24,1,1,0,0,1-.15-.56c0-.48.27-.72.82-.72a1.76,1.76,0,0,1,.44.09,2.18,2.18,0,0,0,.6.09c.35,0,.56-.12.64-.34a4.3,4.3,0,0,0,.11-1.14v-6c0-.56-.11-.91-.32-1.06a1.62,1.62,0,0,0-.9-.21q-.69,0-1.08,0a1.23,1.23,0,0,0-.6.17.55.55,0,0,0-.25.39,3.86,3.86,0,0,0,0,.68c0,.07,0,.18,0,.3l0,.41c0,.15,0,.29,0,.42s0,.24,0,.3a.82.82,0,0,1-.21.61.85.85,0,0,1-.61.2.84.84,0,0,1-.55-.19.76.76,0,0,1-.24-.62c0-.17,0-.39,0-.65a5.73,5.73,0,0,0,0-.65,5.85,5.85,0,0,0-.09-1.11,4.07,4.07,0,0,1-.09-.79c0-.52.31-.77.93-.77.21,0,.58,0,1.12.09a24.08,24.08,0,0,0,2.44.09h2.42a24,24,0,0,0,2.44-.09c.54-.06.91-.09,1.13-.09.62,0,.93.25.93.77a4.07,4.07,0,0,1-.09.79,5.07,5.07,0,0,0-.1,1.11c0,.17,0,.39,0,.65s0,.48,0,.65a.76.76,0,0,1-.24.62.82.82,0,0,1-.55.19.81.81,0,0,1-.6-.2.79.79,0,0,1-.22-.61c0-.06,0-.16,0-.3l0-.42c0-.14,0-.28,0-.41s0-.23,0-.3a3.86,3.86,0,0,0-.05-.68.57.57,0,0,0-.24-.39,1.31,1.31,0,0,0-.61-.17c-.26,0-.62,0-1.07,0a1.63,1.63,0,0,0-.91.21c-.21.15-.32.5-.32,1.06v6a3.83,3.83,0,0,0,.12,1.14c.07.22.28.34.63.34a2.08,2.08,0,0,0,.6-.09,1.85,1.85,0,0,1,.44-.09c.55,0,.82.24.82.72a1,1,0,0,1-.15.56.52.52,0,0,1-.48.24l-.48,0-.7,0L90.93,46,90.09,46l-.84.06-.82.07-.69,0Z"/><path class="cls-2" d="M102.5,46.48a4.8,4.8,0,0,1-3.81-1.64,6.47,6.47,0,0,1-1.43-4.42A6.47,6.47,0,0,1,98.7,36a4.9,4.9,0,0,1,3.87-1.64,5,5,0,0,1,3.9,1.61,6.36,6.36,0,0,1,1.43,4.38,6.5,6.5,0,0,1-1.48,4.44A5,5,0,0,1,102.5,46.48Zm.11-10.61A3,3,0,0,0,100.12,37a5.2,5.2,0,0,0-1,3.15v.29a5.58,5.58,0,0,0,.89,3.35A3,3,0,0,0,102.52,45a3.11,3.11,0,0,0,2.6-1.21,5.42,5.42,0,0,0,.94-3.37Q106.06,35.87,102.61,35.87Z"/><path class="cls-2" d="M112.18,46.87a.34.34,0,0,0-.38-.39h-.46a1.14,1.14,0,0,1-.87-.38,1.35,1.35,0,0,1-.35-1,1.49,1.49,0,0,1,.45-1.1,1.68,1.68,0,0,1,2.45.2,2.6,2.6,0,0,1,.5,1.65,6.09,6.09,0,0,1-1.34,3.56c-.39.53-.72.8-1,.8a.4.4,0,0,1-.45-.46.81.81,0,0,1,.18-.41A5,5,0,0,0,112.18,46.87Z"/><path class="cls-2" d="M124.52,42.9a3.29,3.29,0,0,1,.28-1.44,2.39,2.39,0,0,1,.88-.94,3.42,3.42,0,0,1-1.48-1.07,2.8,2.8,0,0,1-.52-1.77,2.52,2.52,0,0,1,1.09-2.11,5.06,5.06,0,0,1,3.06-.82c.85,0,1.64,0,2.36.08s1.29.08,1.7.08a7.16,7.16,0,0,0,1.13-.08,8.79,8.79,0,0,1,1.19-.08,1.05,1.05,0,0,1,.67.18.75.75,0,0,1,.21.61.85.85,0,0,1-.15.48.5.5,0,0,1-.46.23,2.17,2.17,0,0,1-.59-.06,2.79,2.79,0,0,0-.57,0,.52.52,0,0,0-.29.09.77.77,0,0,0-.24.39,4.36,4.36,0,0,0-.16.89c0,.38-.06.9-.06,1.55v4.07a2.89,2.89,0,0,0,.21,1.34.6.6,0,0,0,.54.36,3.07,3.07,0,0,0,.6-.07,2.15,2.15,0,0,1,.42-.07.64.64,0,0,1,.73.72c0,.52-.32.78-.95.78l-.38,0-.68-.07-.75-.06a5.1,5.1,0,0,0-.6,0,11.09,11.09,0,0,0-1.53.1c-.43.07-.68.11-.76.11-.6,0-.91-.25-.91-.75s.24-.77.7-.77a2,2,0,0,1,.52.09,1.9,1.9,0,0,0,.49.09.49.49,0,0,0,.49-.35,4.56,4.56,0,0,0,.14-1.38V41.67a.56.56,0,0,0-.32-.54,1.84,1.84,0,0,0-.85-.16H128a2,2,0,0,0-1.38.5,1.7,1.7,0,0,0-.57,1.36c0,.24,0,.48,0,.71s0,.45,0,.65a2.22,2.22,0,0,1-.56,1.68,2.32,2.32,0,0,1-1.65.52c-1.57,0-2.35-.73-2.35-2.18V42.49a.67.67,0,0,1,.75-.77.63.63,0,0,1,.7.72v1.12c0,1,.27,1.45.81,1.45a.68.68,0,0,0,.66-.32,1.82,1.82,0,0,0,.16-.84c0-.12,0-.28,0-.48S124.52,43,124.52,42.9Zm6.35-5.69a2,2,0,0,0-.08-.64.69.69,0,0,0-.36-.4,2.26,2.26,0,0,0-.81-.2,13.11,13.11,0,0,0-1.42-.06,4.9,4.9,0,0,0-1.25.14,2,2,0,0,0-.81.39,1.34,1.34,0,0,0-.43.6,2.39,2.39,0,0,0-.12.77,1.58,1.58,0,0,0,.74,1.4,4.51,4.51,0,0,0,2.43.49h1a1.24,1.24,0,0,0,.91-.23,1.76,1.76,0,0,0,.19-1Z"/><path class="cls-2" d="M146.84,35.93a.78.78,0,0,0-.77.64,7.57,7.57,0,0,0-.25,1,7.32,7.32,0,0,1-.24.92,3.9,3.9,0,0,1-.41.88,3.13,3.13,0,0,1-.76.8,3.53,3.53,0,0,1,1.41,1,2.78,2.78,0,0,1,.48,1.75c0,.12,0,.28,0,.47s0,.36,0,.48a2,2,0,0,0,.16.84.65.65,0,0,0,.65.32c.52,0,.78-.49.78-1.45V42.44a.63.63,0,0,1,.7-.72.67.67,0,0,1,.75.77v1.72c0,1.45-.77,2.18-2.33,2.18a2.28,2.28,0,0,1-1.63-.52,2.22,2.22,0,0,1-.55-1.68c0-.2,0-.41,0-.65s0-.47,0-.71a1.69,1.69,0,0,0-.53-1.37,2.54,2.54,0,0,0-1.51-.51,14.85,14.85,0,0,1-2.77.43v1.74a4.56,4.56,0,0,0,.14,1.38.5.5,0,0,0,.5.35,2,2,0,0,0,.5-.09,2,2,0,0,1,.52-.09c.47,0,.7.25.7.77s-.3.75-.91.75c-.07,0-.32,0-.76-.11a11.09,11.09,0,0,0-1.53-.1,5.1,5.1,0,0,0-.6,0l-.75.06-.68.07-.37,0c-.64,0-1-.26-1-.78a.64.64,0,0,1,.72-.72,2,2,0,0,1,.42.07,3.26,3.26,0,0,0,.6.07.62.62,0,0,0,.55-.36,3.09,3.09,0,0,0,.2-1.35v-5.3a3.09,3.09,0,0,0-.2-1.35.61.61,0,0,0-.55-.35,3.21,3.21,0,0,0-.6.06,2,2,0,0,1-.42.07.64.64,0,0,1-.72-.74c0-.52.31-.78,1-.78l.37,0,.68.06.75.07.6,0a9.61,9.61,0,0,0,1.53-.11l.76-.1c.61,0,.91.25.91.76s-.23.78-.7.78a2,2,0,0,1-.52-.09,2,2,0,0,0-.5-.09.5.5,0,0,0-.5.35,4.56,4.56,0,0,0-.14,1.38v2.33c.65,0,1.2-.1,1.65-.17a6.49,6.49,0,0,0,1.13-.27,2.39,2.39,0,0,0,.76-.42,2.3,2.3,0,0,0,.5-.61,4.34,4.34,0,0,0,.49-1.36,7.29,7.29,0,0,1,.34-1.34,2.23,2.23,0,0,1,.71-1,2.57,2.57,0,0,1,1.61-.41,2.73,2.73,0,0,1,.83.14,2.6,2.6,0,0,1,.76.39,2.24,2.24,0,0,1,.56.66,2,2,0,0,1,.21.92,1.4,1.4,0,0,1-.35,1,1.24,1.24,0,0,1-1,.4,1.11,1.11,0,0,1-.81-.29,1,1,0,0,1-.3-.75.93.93,0,0,1,.07-.43,1.53,1.53,0,0,1,.16-.25.32.32,0,0,0-.13-.24A.5.5,0,0,0,146.84,35.93Z"/><path class="cls-2" d="M159.68,37.82a4.32,4.32,0,0,0-.14-1.35.46.46,0,0,0-.45-.35,2.37,2.37,0,0,0-.52.06,1.68,1.68,0,0,1-.39.07.49.49,0,0,1-.44-.18.9.9,0,0,1-.13-.54.87.87,0,0,1,.17-.58.79.79,0,0,1,.6-.2l.29,0,.5.07.59.06a3.74,3.74,0,0,0,.55,0h.34a4,4,0,0,0,.55,0l.62-.07a4.22,4.22,0,0,1,.54-.07l.31,0a.76.76,0,0,1,.6.2.82.82,0,0,1,.17.58,1,1,0,0,1-.12.54.51.51,0,0,1-.44.18,1.6,1.6,0,0,1-.39-.07,2.44,2.44,0,0,0-.52-.06.48.48,0,0,0-.46.35,4.42,4.42,0,0,0-.13,1.35v5.3a2.73,2.73,0,0,0,.13,1,.59.59,0,0,0,.59.32h3.52a.48.48,0,0,0,.5-.32,3.39,3.39,0,0,0,.11-1v-5.3a4.89,4.89,0,0,0-.12-1.35.45.45,0,0,0-.44-.35,2.53,2.53,0,0,0-.53.06,1.62,1.62,0,0,1-.38.07.49.49,0,0,1-.44-.18.9.9,0,0,1-.13-.54.87.87,0,0,1,.16-.58.73.73,0,0,1,.59-.2l.34,0,.6.07.67.06a4.26,4.26,0,0,0,.54,0,11.52,11.52,0,0,0,1.49-.1l.8-.11c.61,0,.91.25.91.75s-.23.77-.7.77a2,2,0,0,1-.52-.09,2,2,0,0,0-.5-.09.5.5,0,0,0-.5.35,4.56,4.56,0,0,0-.14,1.38v5.3a3.92,3.92,0,0,0,.15,1.27.64.64,0,0,0,.69.41,2.62,2.62,0,0,0,.52,0,1.62,1.62,0,0,1,.37-.06,1.06,1.06,0,0,1,.76.26.89.89,0,0,1,.26.65,2.32,2.32,0,0,1,0,.37c0,.17,0,.36-.06.55a5.24,5.24,0,0,0-.06.54,3,3,0,0,0,0,.37q0,.27,0,.63t0,.69a.64.64,0,0,1-.21.52.81.81,0,0,1-.53.18.7.7,0,0,1-.8-.79c0-.06,0-.15,0-.27s0-.25,0-.37l0-.34a1.38,1.38,0,0,0,0-.25,5.3,5.3,0,0,0,0-.77.69.69,0,0,0-.22-.44.88.88,0,0,0-.47-.19,6.14,6.14,0,0,0-.85-.05H154a5.1,5.1,0,0,0-.6,0l-.75.06-.68.07-.37,0c-.64,0-1-.26-1-.78a.64.64,0,0,1,.72-.72,2,2,0,0,1,.42.07,3.26,3.26,0,0,0,.6.07.62.62,0,0,0,.55-.36,3.09,3.09,0,0,0,.2-1.35v-5.3a4.66,4.66,0,0,0-.13-1.38.5.5,0,0,0-.5-.35,2,2,0,0,0-.5.09,2,2,0,0,1-.52.09c-.47,0-.71-.25-.71-.77s.31-.75.91-.75c.08,0,.34,0,.81.11A11.36,11.36,0,0,0,154,35a4.27,4.27,0,0,0,.55,0l.66-.06.61-.07.34,0a.75.75,0,0,1,.59.2.94.94,0,0,1,.15.58,1,1,0,0,1-.12.54.49.49,0,0,1-.44.18,1.6,1.6,0,0,1-.39-.07,2.37,2.37,0,0,0-.52-.06.44.44,0,0,0-.44.35,4.42,4.42,0,0,0-.13,1.35v5.3a3,3,0,0,0,.12,1,.47.47,0,0,0,.5.32H159a.58.58,0,0,0,.59-.32,2.69,2.69,0,0,0,.14-1Z"/><path class="cls-2" d="M176.78,46.48A4.8,4.8,0,0,1,173,44.84a6.52,6.52,0,0,1-1.43-4.42A6.47,6.47,0,0,1,173,36a4.9,4.9,0,0,1,3.87-1.64,5,5,0,0,1,3.9,1.61,6.36,6.36,0,0,1,1.43,4.38,6.46,6.46,0,0,1-1.48,4.44A5,5,0,0,1,176.78,46.48Zm.11-10.61A3,3,0,0,0,174.4,37a5.2,5.2,0,0,0-1,3.15v.29a5.51,5.51,0,0,0,.9,3.35A2.92,2.92,0,0,0,176.8,45a3.1,3.1,0,0,0,2.6-1.21,5.36,5.36,0,0,0,.94-3.37Q180.34,35.87,176.89,35.87Z"/><path class="cls-2" d="M90.7,61.16h5.83V59.37A4.53,4.53,0,0,0,96.4,58a.49.49,0,0,0-.5-.35,2,2,0,0,0-.5.09,2,2,0,0,1-.52.09c-.47,0-.71-.26-.71-.77s.3-.75.91-.75l.76.09a11.25,11.25,0,0,0,1.53.09l.6,0,.75-.06.68-.06.38,0c.63,0,1,.26,1,.77a.65.65,0,0,1-.73.73,3.44,3.44,0,0,1-.42-.07,2.46,2.46,0,0,0-.6-.07.6.6,0,0,0-.54.35,2.94,2.94,0,0,0-.21,1.35v5.29A4.43,4.43,0,0,0,98.37,66a.5.5,0,0,0,.5.35,2,2,0,0,0,.5-.09,2,2,0,0,1,.52-.09c.47,0,.7.26.7.78s-.3.76-.91.76c-.07,0-.32,0-.76-.1a9.72,9.72,0,0,0-1.53-.1l-.6,0-.75.07-.68.07-.37,0c-.64,0-.95-.26-.95-.78a.65.65,0,0,1,.72-.74,2,2,0,0,1,.42.07,3.26,3.26,0,0,0,.6.07.63.63,0,0,0,.55-.35,3.06,3.06,0,0,0,.2-1.34v-2H90.7v2A2.89,2.89,0,0,0,90.91,66a.6.6,0,0,0,.54.35,3.07,3.07,0,0,0,.6-.07,2.15,2.15,0,0,1,.42-.07.65.65,0,0,1,.73.74q0,.78-1,.78l-.37,0-.68-.07-.75-.07-.6,0a9.72,9.72,0,0,0-1.53.1,7.25,7.25,0,0,1-.76.1c-.61,0-.91-.25-.91-.76s.24-.78.71-.78a2,2,0,0,1,.52.09,1.89,1.89,0,0,0,.5.09.51.51,0,0,0,.5-.35A4.53,4.53,0,0,0,89,64.66V59.37A3.12,3.12,0,0,0,88.8,58a.63.63,0,0,0-.55-.35,2.58,2.58,0,0,0-.6.07,2.92,2.92,0,0,1-.42.07.64.64,0,0,1-.72-.73c0-.51.31-.77.95-.77l.37,0,.68.06.75.06.6,0a11.25,11.25,0,0,0,1.53-.09l.76-.09c.61,0,.91.25.91.75s-.23.77-.7.77a2,2,0,0,1-.52-.09,2,2,0,0,0-.5-.09.49.49,0,0,0-.5.35,4.43,4.43,0,0,0-.14,1.37Z"/><path class="cls-2" d="M112.25,61a3,3,0,0,1-.11,1.06c-.08.12-.3.19-.66.19h-7.21a.66.66,0,0,0-.39.08.33.33,0,0,0-.09.26,4.07,4.07,0,0,0,1,2.83,3.27,3.27,0,0,0,2.54,1.14,3.23,3.23,0,0,0,1.83-.55,2.44,2.44,0,0,0,1.07-1.38l.21-.66a.7.7,0,0,1,.75-.54.75.75,0,0,1,.84.86,3.28,3.28,0,0,1-1.5,2.62,5.48,5.48,0,0,1-3.4,1.15,4.81,4.81,0,0,1-3.79-1.6,6.28,6.28,0,0,1-1.41-4.3,6.58,6.58,0,0,1,1.5-4.49,4.93,4.93,0,0,1,3.9-1.73,4.72,4.72,0,0,1,3.52,1.43A5,5,0,0,1,112.25,61ZM104,60.41c0,.22.16.32.5.32h5.42c.31,0,.47-.1.47-.32a2.88,2.88,0,0,0-.9-2.1,3,3,0,0,0-2.14-.89,3.41,3.41,0,0,0-2.31.93A2.69,2.69,0,0,0,104,60.41Z"/><path class="cls-2" d="M128.08,65.61l2.84-8.35c.22-.63.56-.95,1-.95a5.83,5.83,0,0,1,1.12.11,4.94,4.94,0,0,0,1.1.12,4.63,4.63,0,0,0,1.1-.12,4.56,4.56,0,0,1,1-.11q1,0,1,.78a.63.63,0,0,1-.7.72,3.28,3.28,0,0,1-.52-.06,3.28,3.28,0,0,0-.52-.06q-1.11,0-1.11,1.71v5.23c0,1.14.36,1.7,1.08,1.7a3.85,3.85,0,0,0,.67,0l.4-.06c.47,0,.7.24.7.73s-.31.81-.95.81h-.06l-.26,0c-.51-.06-1-.09-1.41-.12s-.83,0-1.17,0a9.55,9.55,0,0,0-1.41.1,8.61,8.61,0,0,1-1.27.1c-.57,0-.86-.25-.86-.74s.29-.78.88-.78a3.21,3.21,0,0,1,.63,0l.26,0a.88.88,0,0,0,.45-.1.75.75,0,0,0,.3-.38,3.25,3.25,0,0,0,.16-.72q0-.47.06-1.14l.14-6c0-.09,0-.14-.11-.14s-.09,0-.14.14L129.28,67a1.16,1.16,0,0,1-1.22.87,1.57,1.57,0,0,1-.85-.17,1.45,1.45,0,0,1-.42-.7l-3.11-9.09c0-.09-.1-.14-.16-.14s-.09,0-.09.14l.14,6.69c0,1.1.31,1.66.88,1.66a3,3,0,0,0,.66-.09h.27c.56,0,.84.26.84.79s-.29.79-.86.79h-.2l-.28,0-1-.14a7.16,7.16,0,0,0-1.13-.07,10.32,10.32,0,0,0-1.57.07l-.93.16-.13,0H120c-.68,0-1-.26-1-.79a.72.72,0,0,1,.21-.53.6.6,0,0,1,.47-.22,2.6,2.6,0,0,1,.58.07,3.3,3.3,0,0,0,.49.07q1.11,0,1.11-1.71V59.4q0-1.71-1.11-1.71a3.38,3.38,0,0,0-.53.06,3.48,3.48,0,0,1-.54.06c-.45,0-.68-.24-.68-.72s.34-.78,1-.78a6.41,6.41,0,0,1,1.09.09,6.18,6.18,0,0,0,1,.09l.5,0,.65-.06.61-.07.42,0a1,1,0,0,1,.72.27,2.18,2.18,0,0,1,.44.84Z"/><path class="cls-2" d="M147.38,57.67a2.58,2.58,0,0,0-.6.07,2.92,2.92,0,0,1-.42.07.64.64,0,0,1-.72-.73c0-.51.32-.77,1-.77l.38,0,.68.06.74.06.6,0a11.4,11.4,0,0,0,1.54-.09l.76-.09q.9,0,.9.75c0,.51-.23.77-.7.77a2,2,0,0,1-.52-.09,2,2,0,0,0-.5-.09.49.49,0,0,0-.5.35,4.43,4.43,0,0,0-.14,1.37v5.31a4.43,4.43,0,0,0,.14,1.37.49.49,0,0,0,.5.35,2,2,0,0,0,.5-.09,2,2,0,0,1,.52-.09c.47,0,.7.26.7.77s-.3.75-.9.75a7.25,7.25,0,0,1-.76-.1,9.86,9.86,0,0,0-1.54-.1l-.6,0-.74.07-.68.07-.38,0c-.63,0-1-.26-1-.77a.64.64,0,0,1,.72-.73,2.92,2.92,0,0,1,.42.07,2.58,2.58,0,0,0,.6.07.63.63,0,0,0,.55-.35,3.15,3.15,0,0,0,.2-1.35V60.55L143.05,65a2.37,2.37,0,0,0-.45.48.8.8,0,0,0-.14.45c0,.29.16.43.48.43a2,2,0,0,0,.5-.09,2,2,0,0,1,.52-.09c.47,0,.7.26.7.77s-.3.75-.9.75a7.25,7.25,0,0,1-.76-.1,9.94,9.94,0,0,0-1.54-.1l-.6,0-.75.07-.68.07-.37,0c-.63,0-.95-.26-.95-.77a.64.64,0,0,1,.72-.73,2.92,2.92,0,0,1,.42.07,2.58,2.58,0,0,0,.6.07.63.63,0,0,0,.55-.35,3.15,3.15,0,0,0,.2-1.35V59.37a3.15,3.15,0,0,0-.2-1.35.63.63,0,0,0-.55-.35,2.58,2.58,0,0,0-.6.07,2.92,2.92,0,0,1-.42.07.64.64,0,0,1-.72-.73c0-.51.32-.77.95-.77l.37,0,.68.06.75.06.6,0A11.51,11.51,0,0,0,143,56.4l.76-.09q.9,0,.9.75c0,.51-.23.77-.7.77a2,2,0,0,1-.52-.09,2,2,0,0,0-.5-.09.49.49,0,0,0-.5.35,4.43,4.43,0,0,0-.14,1.37v4.38l5.29-4.67a1.64,1.64,0,0,0,.34-.42,1.13,1.13,0,0,0,.09-.47.41.41,0,0,0-.22-.42A.92.92,0,0,0,147.38,57.67Z"/><path class="cls-2" d="M155.69,56.24a1.17,1.17,0,0,0,.56,1V57a.68.68,0,0,1,.24-.53.84.84,0,0,1,.6-.22.88.88,0,0,1,1,1,1.38,1.38,0,0,1-.52,1.1,2,2,0,0,1-1.29.44,2.18,2.18,0,0,1-1.65-.67A2.35,2.35,0,0,1,154,56.4a3.8,3.8,0,0,1,1.63-3.14A6.62,6.62,0,0,1,159.77,52a6.5,6.5,0,0,1,4,1.18,3.74,3.74,0,0,1,1.53,3.11A3.9,3.9,0,0,1,162.94,60c-.27.14-.62.3-1,.48a5.33,5.33,0,0,0-1.82,1.09,1.91,1.91,0,0,0-.49,1.38,2.07,2.07,0,0,1-.12.86.73.73,0,0,1-.72.34c-.64,0-.95-.39-.95-1.18a3.19,3.19,0,0,1,.54-1.86,7.73,7.73,0,0,1,2.5-1.93,8.49,8.49,0,0,0,2.1-1.42,2.18,2.18,0,0,0,.48-1.48,2.4,2.4,0,0,0-1-2,4.46,4.46,0,0,0-2.7-.76,4.87,4.87,0,0,0-2.86.81A2.34,2.34,0,0,0,155.69,56.24ZM159,68a1.43,1.43,0,0,1-1.43-1.43,1.37,1.37,0,0,1,.42-1,1.38,1.38,0,0,1,1-.42,1.33,1.33,0,0,1,1,.42,1.4,1.4,0,0,1,.41,1,1.41,1.41,0,0,1-.41,1A1.33,1.33,0,0,1,159,68Z"/><path class="cls-3" d="M34.53,0C27.47,15.68,38,18.17,42.8,26.3c3.56,5.44,1.3,11.45-2.89,13.31-7.66,3.4-13.65-.28-16.55-5.36C15.25,22.16,21.05,7.66,34.53,0Z"/><path class="cls-4" d="M46.25,9.83c-.77,19.76-12.88,16.93-22,22.84C17.79,36.43,17,43.79,20.39,47.85c6.14,7.43,14.2,6.72,19.79,3C54.73,42.54,56.2,24.63,46.25,9.83Z"/></svg>