<svg width="34" height="46" viewBox="0 0 34 46" fill="none" xmlns="http://www.w3.org/2000/svg">
<path d="M19.8333 12.2188V0H2.125C0.947396 0 0 0.961328 0 2.15625V43.8438C0 45.0387 0.947396 46 2.125 46H31.875C33.0526 46 34 45.0387 34 43.8438V14.375H21.9583C20.7896 14.375 19.8333 13.4047 19.8333 12.2188ZM26.6023 31.2081L18.0652 39.8062C17.4764 40.4 16.5254 40.4 15.9366 39.8062L7.39943 31.2081C6.50073 30.3034 7.13115 28.75 8.39552 28.75H14.1667V21.5625C14.1667 20.7683 14.8006 20.125 15.5833 20.125H18.4167C19.1994 20.125 19.8333 20.7683 19.8333 21.5625V28.75H25.6045C26.8689 28.75 27.4993 30.3034 26.6023 31.2081ZM33.3802 9.43359L24.712 0.628906C24.3135 0.224609 23.7734 0 23.2068 0H22.6667V11.5H34V10.952C34 10.3859 33.7786 9.83789 33.3802 9.43359Z" fill="#FF4A4A"/>
</svg>
